<?xml version="1.0" encoding="UTF-8" standalone="no"?>
<svg
   viewBox="0 0 80 160"
   width="150"
   height="300"
   fill-rule="nonzero"
   version="1.1"
   id="svg3"
   sodipodi:docname="express-js1.svg"
   inkscape:version="1.3.1 (9b9bdc1480, 2023-11-25, custom)"
   xmlns:inkscape="http://www.inkscape.org/namespaces/inkscape"
   xmlns:sodipodi="http://sodipodi.sourceforge.net/DTD/sodipodi-0.dtd"
   xmlns="http://www.w3.org/2000/svg"
   xmlns:svg="http://www.w3.org/2000/svg">
  <defs
     id="defs3" />
  <sodipodi:namedview
     id="namedview3"
     pagecolor="#ffffff"
     bordercolor="#111111"
     borderopacity="1"
     inkscape:showpageshadow="0"
     inkscape:pageopacity="0"
     inkscape:pagecheckerboard="true"
     inkscape:deskcolor="#d1d1d1"
     showborder="false"
     borderlayer="true"
     inkscape:clip-to-page="true"
     inkscape:zoom="1.7"
     inkscape:cx="239.70588"
     inkscape:cy="192.94118"
     inkscape:window-width="1920"
     inkscape:window-height="1016"
     inkscape:window-x="3600"
     inkscape:window-y="27"
     inkscape:window-maximized="1"
     inkscape:current-layer="g2" />
  <g
     fill="#1ca121"
     fill-rule="nonzero"
     stroke="none"
     stroke-width="1"
     stroke-linecap="butt"
     stroke-linejoin="miter"
     stroke-miterlimit="10"
     stroke-dasharray="none"
     stroke-dashoffset="0"
     font-family="none"
     font-weight="none"
     font-size="none"
     text-anchor="none"
     style="mix-blend-mode:normal"
     id="g3">
    <g
       transform="matrix(1.5114129,0,0,2.2579294,90.242792,55.882604)"
       id="g2">
      <path
         d="m -33.165363,25.915762 h 1.408566 c 1.002709,0 1.946927,-0.528924 2.553329,-1.431601 l 8.934852,-13.286496 8.934854,13.286496 c 0.6064,0.901327 1.5506175,1.431601 2.5533275,1.431601 h 1.4085664 L -18.77052,8.9686291 -7.882772,-7.2228959 h -1.4085677 c -1.0027083,0 -1.9469253,0.5289233 -2.5533263,1.431601 l -8.425143,12.5295431 -8.426336,-12.5308924 c -0.606402,-0.9013284 -1.55062,-1.4302517 -2.553329,-1.4302517 h -1.408568 l 10.887749,16.191525 z"
         id="path1"
         style="stroke-width:1.26912" />
      <path
         d="M -32.803673,10.317925 V 6.2700431 c 0,-9.0065367 -7.096552,-16.1389043 -15.313991,-14.6425373 -6.397044,1.1644405 -10.947434,7.70311879 -10.947434,15.0257368 v 0.966095 2.6985874 0.191601 c 0,8.841921 5.70231,15.902777 12.973143,15.999926 6.078329,0.08097 11.207662,-4.512039 12.78096,-10.793001 h -1.227125 c -0.740095,0 -1.410955,0.478999 -1.732059,1.231905 -2.075848,4.850711 -6.910335,7.90956 -12.209176,6.533281 -4.884627,-1.269686 -8.198342,-6.44288 -8.198342,-12.107215 V 10.317925 Z M -56.677697,7.2280418 c 0,-6.35247568 3.347138,-11.5459079 8.265188,-12.7886075 7.011801,-1.7702737 13.221436,4.2097969 13.221436,11.8306088 v 1.3492945 h -21.486624 z"
         id="path2"
         style="stroke-width:1.26912" />
    </g>
  </g>
</svg>
